<svg width="44" height="45" viewBox="0 0 44 45" fill="none" xmlns="http://www.w3.org/2000/svg">
<rect y="0.80957" width="44" height="44" rx="22" fill="#011813"/>
<path d="M28.1874 17.3096V26.2471C28.1874 26.4294 28.115 26.6043 27.986 26.7332C27.8571 26.8621 27.6822 26.9346 27.4999 26.9346C27.3176 26.9346 27.1427 26.8621 27.0138 26.7332C26.8848 26.6043 26.8124 26.4294 26.8124 26.2471V18.969L16.9863 28.796C16.8573 28.925 16.6823 28.9975 16.4999 28.9975C16.3175 28.9975 16.1425 28.925 16.0135 28.796C15.8845 28.667 15.812 28.492 15.812 28.3096C15.812 28.1271 15.8845 27.9522 16.0135 27.8232L25.8404 17.9971H18.5624C18.3801 17.9971 18.2052 17.9246 18.0763 17.7957C17.9473 17.6668 17.8749 17.4919 17.8749 17.3096C17.8749 17.1272 17.9473 16.9524 18.0763 16.8234C18.2052 16.6945 18.3801 16.6221 18.5624 16.6221H27.4999C27.6822 16.6221 27.8571 16.6945 27.986 16.8234C28.115 16.9524 28.1874 17.1272 28.1874 17.3096Z" fill="white"/>
</svg>
